<svg xmlns="http://www.w3.org/2000/svg" version="1.1" xmlns:xlink="http://www.w3.org/1999/xlink" xmlns:svgjs="http://svgjs.dev/svgjs" width="1000" height="189" viewBox="0 0 1000 189"><g transform="matrix(1,0,0,1,-0.6060606060606801,-0.017752389353034914)"><svg viewBox="0 0 396 75" data-background-color="#c8c8c8" preserveAspectRatio="xMidYMid meet" height="189" width="1000" xmlns="http://www.w3.org/2000/svg" xmlns:xlink="http://www.w3.org/1999/xlink"><g id="tight-bounds" transform="matrix(1,0,0,1,0.24000000000003752,0.007044598949619285)"><svg viewBox="0 0 395.5199999999999 74.98591080210075" height="74.98591080210075" width="395.5199999999999"><g><svg viewBox="0 0 395.5199999999999 74.98591080210075" height="74.98591080210075" width="395.5199999999999"><g><svg viewBox="0 0 495.4900989750379 93.939058366369" height="74.98591080210075" width="395.5199999999999"><g transform="matrix(1,0,0,1,0,12.982894463079944)"><svg viewBox="0 0 395.52 67.97326944020911" height="67.97326944020911" width="395.52"><g id="textblocktransform"><svg viewBox="0 0 395.52 67.97326944020911" height="67.97326944020911" width="395.52" id="textblock"><g><svg viewBox="0 0 395.52 67.97326944020911" height="67.97326944020911" width="395.52"><g transform="matrix(1,0,0,1,0,0)"><svg width="395.52" viewBox="4.2 -38.16 224.15 38.529999999999994" height="67.97326944020911" data-palette-color="url(#6e7a8bba-dd8c-4e77-baca-8e41fb6c8432)"></svg></g></svg></g></svg></g></svg></g><g transform="matrix(1,0,0,1,411.5668575563668,0)"><svg viewBox="0 0 83.92324141867107 93.939058366369" height="93.939058366369" width="83.92324141867107"><g><svg xmlns="http://www.w3.org/2000/svg" xmlns:xlink="http://www.w3.org/1999/xlink" version="1.1" x="0" y="0" viewBox="11.209000000000007 5.473000000000001 78.47 87.83500000000002" enable-background="new 0 0 100 100" xml:space="preserve" height="93.939058366369" width="83.92324141867107" class="icon-icon-0" data-fill-palette-color="accent" id="icon-0"></svg></g></svg></g></svg></g></svg></g><defs></defs><mask id="29de8b09-6339-46c3-9289-24fdb61d1b3f"><g id="SvgjsG1128"><svg viewBox="0 0 395.5199999999999 74.98591080210075" height="74.98591080210075" width="395.5199999999999"><g><svg viewBox="0 0 395.5199999999999 74.98591080210075" height="74.98591080210075" width="395.5199999999999"><g><svg viewBox="0 0 495.4900989750379 93.939058366369" height="74.98591080210075" width="395.5199999999999"><g transform="matrix(1,0,0,1,0,12.982894463079944)"><svg viewBox="0 0 395.52 67.97326944020911" height="67.97326944020911" width="395.52"><g id="SvgjsG1127"><svg viewBox="0 0 395.52 67.97326944020911" height="67.97326944020911" width="395.52" id="SvgjsSvg1126"><g><svg viewBox="0 0 395.52 67.97326944020911" height="67.97326944020911" width="395.52"><g transform="matrix(1,0,0,1,0,0)"><svg width="395.52" viewBox="4.2 -38.16 224.15 38.529999999999994" height="67.97326944020911" data-palette-color="url(#6e7a8bba-dd8c-4e77-baca-8e41fb6c8432)"><path d="M10.57-5.86L20.53-5.86Q22.05-5.86 22.63-6.15L22.63-6.15 22.73-6.13 22.49 0 4.2 0 4.2-32.64Q4.86-32.59 5.66-32.57L5.66-32.57 7.37-32.52Q9.08-32.47 11.08-32.47L11.08-32.47Q16.67-32.47 22.14-32.67L22.14-32.67Q21.88-30.52 21.88-26.93L21.88-26.93Q21.88-26.54 21.92-26.34L21.92-26.34 21.88-26.27Q20.61-26.64 18.26-26.64L18.26-26.64 10.57-26.64 10.57-20.41 16.36-20.41Q19.04-20.41 19.58-20.56L19.58-20.56 19.65-14.53Q18.48-14.65 16.63-14.65L16.63-14.65 10.57-14.65 10.57-5.86ZM35.23 0L24.95-25.51 31.86-25.51 37.81-8.72 43.58-25.51 50.34-25.51 40.26 0 35.23 0ZM52.58-12.55L52.58-12.55Q52.58-15.41 53.56-17.85 54.54-20.29 56.32-22.12L56.32-22.12Q60.13-26 66.28-26L66.28-26Q71.48-26 74.63-22.56L74.63-22.56Q77.73-19.24 77.73-14.21L77.73-14.21Q77.73-12.28 77.44-11.57L77.44-11.57Q75-10.89 67.5-10.89L67.5-10.89 58.91-10.89Q59.54-8.28 61.86-6.82 64.18-5.37 67.89-5.37L67.89-5.37Q71.77-5.37 74.56-6.76L74.56-6.76Q75.29-7.13 75.65-7.45L75.65-7.45Q75.61-6.42 75.53-5.35L75.53-5.35 75.26-1.54Q73.41-0.27 69.26 0.22L69.26 0.22Q68.04 0.37 66.91 0.37L66.91 0.37Q60.71 0.37 56.66-3.25L56.66-3.25Q52.58-6.88 52.58-12.55ZM71.24-15.63L71.24-15.63Q70.23-20.87 65.52-20.87L65.52-20.87Q61.81-20.87 59.88-17.68L59.88-17.68Q59.3-16.7 58.98-15.53L58.98-15.53Q59.57-15.5 60.42-15.48L60.42-15.48 62.23-15.48Q63.13-15.45 63.96-15.45L63.96-15.45 65.35-15.45Q66.6-15.45 67.79-15.48L67.79-15.48 69.79-15.55Q70.6-15.58 71.24-15.63ZM89.45-17.07L89.45-3.13Q89.45-0.98 89.64 0L89.64 0 83.51 0 83.51-25.51 89.45-25.51 89.45-23.34Q92.67-26 96.33-26L96.33-26Q100.33-26 102.73-23.28 105.12-20.56 105.12-16.11L105.12-16.11 105.12-6.4Q105.12-2.27 105.24-1.44 105.36-0.61 105.57-0.37 105.78-0.12 105.93 0.07L105.93 0.07 105.88 0.17Q103.9 0 103 0L103 0 101.29 0Q100.51 0 99.19 0.07L99.19 0.07 99.19-13.23Q99.19-20.39 94.84-20.39L94.84-20.39Q91.62-20.39 89.45-17.07L89.45-17.07ZM123.57-5.37L123.57-5.37Q126.72-5.37 127.9-7.01L127.9-7.01 128.09-7.01 128.16-1.34Q126.97-0.15 123.72 0.24L123.72 0.24Q122.84 0.37 121.54 0.37 120.23 0.37 118.7-0.12 117.18-0.61 116.1-1.71L116.1-1.71Q113.88-3.98 113.88-8.81L113.88-8.81 113.88-19.9 110.2-19.9Q110.17-20.61 110.17-21.34L110.17-21.34 110.17-25.1Q110.17-25.51 110.2-25.51L110.2-25.51 113.88-25.51 113.88-32.47 119.86-32.47 119.86-25.51 126.58-25.51 126.58-19.9 119.86-19.9 119.86-9.94Q119.86-6.1 121.99-5.57L121.99-5.57Q122.67-5.37 123.57-5.37ZM133.26 0L133.26-32.64Q136.66-33.08 140.22-33.08L140.22-33.08Q146.86-33.08 150.32-29.97 153.77-26.86 153.77-20.65L153.77-20.65Q153.77-15.11 149.99-11.89L149.99-11.89Q146.45-8.86 140.88-8.86L140.88-8.86Q140.25-8.86 139.49-8.94L139.49-8.94 139.49 0 133.26 0ZM140.95-27.2L140.95-27.2Q140.22-27.2 139.49-27.15L139.49-27.15 139.49-14.31Q140.27-14.21 141.39-14.21 142.52-14.21 143.74-14.69 144.96-15.16 145.79-16.02L145.79-16.02Q147.52-17.8 147.52-20.7L147.52-20.7Q147.52-27.2 140.95-27.2ZM162.88-28.83L157.38-32.79Q159.34-35.84 161.46-38.16L161.46-38.16 166.71-34.03Q165.66-32.74 164.76-31.49L164.76-31.49Q164.76-31.49 162.88-28.83L162.88-28.83ZM163.8-25.51L163.8-2.73Q163.8-0.63 163.9 0L163.9 0 157.7 0 157.7-25.51 163.8-25.51ZM176.35-36.38L176.35-2.73Q176.35-0.63 176.45 0L176.45 0 170.25 0 170.25-36.38 176.35-36.38ZM181.35-12.62L181.35-12.62Q181.35-15.31 182.27-17.76 183.18-20.21 184.89-22.05L184.89-22.05Q188.63-26 194.58-26L194.58-26Q200.52-26 204.01-22.27L204.01-22.27Q207.35-18.7 207.35-13.01L207.35-13.01Q207.35-7.32 203.91-3.59L203.91-3.59Q200.27 0.37 194.27 0.37L194.27 0.37Q188.07 0.37 184.55-3.52L184.55-3.52Q181.35-7.06 181.35-12.62ZM187.28-12.77L187.28-12.77Q187.28-11.23 187.8-9.79 188.31-8.35 189.26-7.32L189.26-7.32Q191.29-5.1 194.58-5.1L194.58-5.1Q197.64-5.1 199.39-7.28L199.39-7.28Q201.1-9.38 201.1-12.74L201.1-12.74Q201.1-16.16 199.35-18.26L199.35-18.26Q197.47-20.51 194.19-20.51L194.19-20.51Q190.87-20.51 188.99-18.12L188.99-18.12Q187.28-15.92 187.28-12.77ZM223.76-5.37L223.76-5.37Q226.91-5.37 228.08-7.01L228.08-7.01 228.27-7.01 228.35-1.34Q227.15-0.15 223.9 0.24L223.9 0.24Q223.02 0.37 221.72 0.37 220.41 0.37 218.89-0.12 217.36-0.61 216.29-1.71L216.29-1.71Q214.06-3.98 214.06-8.81L214.06-8.81 214.06-19.9 210.38-19.9Q210.35-20.61 210.35-21.34L210.35-21.34 210.35-25.1Q210.35-25.51 210.38-25.51L210.38-25.51 214.06-25.51 214.06-32.47 220.05-32.47 220.05-25.51 226.76-25.51 226.76-19.9 220.05-19.9 220.05-9.94Q220.05-6.1 222.17-5.57L222.17-5.57Q222.85-5.37 223.76-5.37Z" opacity="1" transform="matrix(1,0,0,1,0,0)" fill="white" class="wordmark-text-0" id="SvgjsPath1125"></path></svg></g></svg></g></svg></g></svg></g><g transform="matrix(1,0,0,1,411.5668575563668,0)"><svg viewBox="0 0 83.92324141867107 93.939058366369" height="93.939058366369" width="83.92324141867107"><g><svg xmlns="http://www.w3.org/2000/svg" xmlns:xlink="http://www.w3.org/1999/xlink" version="1.1" x="0" y="0" viewBox="11.209000000000007 5.473000000000001 78.47 87.83500000000002" enable-background="new 0 0 100 100" xml:space="preserve" height="93.939058366369" width="83.92324141867107" class="icon-icon-0" data-fill-palette-color="accent" id="SvgjsSvg1124"></svg></g></svg></g></svg></g></svg></g><defs><mask></mask></defs></svg></g></mask><linearGradient x1="0" x2="1" y1="0.578" y2="0.595" id="6e7a8bba-dd8c-4e77-baca-8e41fb6c8432"><stop stop-color="#6ee2f5" offset="0"></stop><stop stop-color="#6454f0" offset="1"></stop></linearGradient><rect width="395.5199999999999" height="74.98591080210075" fill="url(#6e7a8bba-dd8c-4e77-baca-8e41fb6c8432)" mask="url(#29de8b09-6339-46c3-9289-24fdb61d1b3f)" data-fill-palette-color="primary"></rect><mask id="04e2dee8-a2ef-4b07-9935-52f549a1f059"><g id="SvgjsG1137"><svg viewBox="0 0 395.5199999999999 74.98591080210075" height="74.98591080210075" width="395.5199999999999"><g><svg viewBox="0 0 395.5199999999999 74.98591080210075" height="74.98591080210075" width="395.5199999999999"><g><svg viewBox="0 0 495.4900989750379 93.939058366369" height="74.98591080210075" width="395.5199999999999"><g transform="matrix(1,0,0,1,0,12.982894463079944)"><svg viewBox="0 0 395.52 67.97326944020911" height="67.97326944020911" width="395.52"><g id="SvgjsG1136"><svg viewBox="0 0 395.52 67.97326944020911" height="67.97326944020911" width="395.52" id="SvgjsSvg1135"><g><svg viewBox="0 0 395.52 67.97326944020911" height="67.97326944020911" width="395.52"><g transform="matrix(1,0,0,1,0,0)"><svg width="395.52" viewBox="4.2 -38.16 224.15 38.529999999999994" height="67.97326944020911" data-palette-color="url(#6e7a8bba-dd8c-4e77-baca-8e41fb6c8432)"></svg></g></svg></g></svg></g></svg></g><g transform="matrix(1,0,0,1,411.5668575563668,0)"><svg viewBox="0 0 83.92324141867107 93.939058366369" height="93.939058366369" width="83.92324141867107"><g><svg xmlns="http://www.w3.org/2000/svg" xmlns:xlink="http://www.w3.org/1999/xlink" version="1.1" x="0" y="0" viewBox="11.209000000000007 5.473000000000001 78.47 87.83500000000002" enable-background="new 0 0 100 100" xml:space="preserve" height="93.939058366369" width="83.92324141867107" class="icon-icon-0" data-fill-palette-color="accent" id="SvgjsSvg1134"><path d="M24.775 93.308v-7.196h2.384l0 7.196H73.91l0.001-7.199h2.305v7.199h13.463v-8.526c0-13.838-6.715-27.398-20.086-27.398l-38.568-0.021c-12.184 0-19.816 12.029-19.816 27.039v8.906H24.775z" fill="white"></path><path d="M73.173 23.271c-1.058-6.777-4.953-11.664-11.26-14.298-0.02-0.871-0.578-1.671-1.456-1.944-3.312-1.032-7.099-1.556-11.253-1.556-4.157 0-7.943 0.524-11.255 1.557-0.857 0.267-1.412 1.037-1.456 1.884-6.388 2.62-10.331 7.528-11.397 14.353-2.77 0.201-4.957 2.506-4.957 5.327v7.207c0 2.954 2.395 5.348 5.348 5.348h0.8c0.604 1.118 1.452 2.607 2.461 4.154 2.161 3.313 2.463 3.392 5.781 3.392h7.738c0.231 0.714 0.894 1.234 1.685 1.234h3.404c0.982 0 1.778-0.797 1.778-1.78 0-0.981-0.796-1.778-1.778-1.778h-3.404c-0.791 0-1.453 0.519-1.685 1.232h-7.738c-2.978 0-2.978 0-4.866-2.896-1.367-2.096-2.436-4.086-2.98-5.148V23.987c0.665-4.841 3.111-10.562 10.365-13.547 0.391 0.419 0.941 0.667 1.522 0.667 0.206 0 0.416-0.031 0.622-0.095 2.909-0.907 6.278-1.367 10.013-1.367 3.733 0 7.103 0.459 10.011 1.367 0.771 0.239 1.568 0.005 2.099-0.531 6.88 2.87 9.398 8.214 10.179 12.897v17.77h1.197c2.953 0 5.347-2.394 5.347-5.347v-7.207C78.036 25.804 75.898 23.516 73.173 23.271z" fill="white"></path><path d="M49.204 11.36c-11.509 0-20.838 9.329-20.838 20.837 0 5.672 2.269 10.812 5.946 14.57 0.073 0 0.139 0 0.217 0h7.211c0.469-0.755 1.296-1.232 2.211-1.232h3.404c1.441 0 2.613 1.172 2.613 2.613 0 1.441-1.172 2.614-2.613 2.614h-3.404c-0.916 0-1.743-0.477-2.211-1.234h-4.106c3.31 2.213 7.289 3.505 11.57 3.505 11.509 0 20.838-9.327 20.838-20.836C70.042 20.689 60.713 11.36 49.204 11.36z" fill="white"></path></svg></g></svg></g></svg></g></svg></g><defs><mask></mask></defs><mask><g id="SvgjsG1133"><svg viewBox="0 0 395.5199999999999 74.98591080210075" height="74.98591080210075" width="395.5199999999999"><g><svg viewBox="0 0 395.5199999999999 74.98591080210075" height="74.98591080210075" width="395.5199999999999"><g><svg viewBox="0 0 495.4900989750379 93.939058366369" height="74.98591080210075" width="395.5199999999999"><g transform="matrix(1,0,0,1,0,12.982894463079944)"><svg viewBox="0 0 395.52 67.97326944020911" height="67.97326944020911" width="395.52"><g id="SvgjsG1132"><svg viewBox="0 0 395.52 67.97326944020911" height="67.97326944020911" width="395.52" id="SvgjsSvg1131"><g><svg viewBox="0 0 395.52 67.97326944020911" height="67.97326944020911" width="395.52"><g transform="matrix(1,0,0,1,0,0)"><svg width="395.52" viewBox="4.2 -38.16 224.15 38.529999999999994" height="67.97326944020911" data-palette-color="url(#6e7a8bba-dd8c-4e77-baca-8e41fb6c8432)"></svg></g></svg></g></svg></g></svg></g><g transform="matrix(1,0,0,1,411.5668575563668,0)"><svg viewBox="0 0 83.92324141867107 93.939058366369" height="93.939058366369" width="83.92324141867107"><g><svg xmlns="http://www.w3.org/2000/svg" xmlns:xlink="http://www.w3.org/1999/xlink" version="1.1" x="0" y="0" viewBox="11.209000000000007 5.473000000000001 78.47 87.83500000000002" enable-background="new 0 0 100 100" xml:space="preserve" height="93.939058366369" width="83.92324141867107" class="icon-icon-0" data-fill-palette-color="accent" id="SvgjsSvg1129"></svg></g></svg></g></svg></g></svg></g><defs><mask></mask></defs></svg></g></mask></svg></g></mask><linearGradient x1="0" x2="1" y1="0.578" y2="0.595" id="18703c9d-b3e6-4b72-bdda-4f131cfe22e0"><stop stop-color="#6ee2f5" offset="0"></stop><stop stop-color="#6454f0" offset="1"></stop></linearGradient><rect width="395.5199999999999" height="74.98591080210075" fill="url(#18703c9d-b3e6-4b72-bdda-4f131cfe22e0)" mask="url(#04e2dee8-a2ef-4b07-9935-52f549a1f059)" data-fill-palette-color="accent"></rect></svg><rect width="395.5199999999999" height="74.98591080210075" fill="none" stroke="none" visibility="hidden"></rect></g></svg></g></svg>